<?xml version="1.0" encoding="UTF-8"?>
<svg version="1.1" xmlns="http://www.w3.org/2000/svg" width="512" height="512">
<path d="M0 0 C1.92919371 1.79986057 3.83997019 3.61713019 5.75 5.4375 C6.48089844 6.11554688 7.21179688 6.79359375 7.96484375 7.4921875 C30.26102053 28.77289484 42.5657197 59.39913003 46.75 89.4375 C46.75 90.4275 46.75 91.4175 46.75 92.4375 C47.89339844 92.54964844 49.03679687 92.66179687 50.21484375 92.77734375 C72.77667954 95.62793825 92.6349403 109.24254974 108.75 124.4375 C109.48863281 125.10007813 110.22726562 125.76265625 110.98828125 126.4453125 C130.91117086 145.05888254 144.66891069 175.51236211 145.89208984 202.58203125 C146.91230061 240.03464189 138.04206054 272.11603783 111.94677734 300.09375 C102.79595223 309.71103866 93.18162582 316.81779109 81.75 323.4375 C80.26886719 324.30568359 80.26886719 324.30568359 78.7578125 325.19140625 C72.68632168 328.48514702 66.39271385 330.66641673 59.8125 332.6875 C59.01424805 332.9340332 58.21599609 333.18056641 57.39355469 333.43457031 C41.92264656 337.94665848 26.74316095 337.7035169 10.76171875 337.6328125 C8.53112895 337.62986675 6.30053776 337.62782959 4.06994629 337.62670898 C-4.14089042 337.61628324 -12.3516974 337.5883608 -20.5625 337.5625 C-38.939375 337.52125 -57.31625 337.48 -76.25 337.4375 C-76.25 300.4775 -76.25 263.5175 -76.25 225.4375 C-57.44 224.9425 -57.44 224.9425 -38.25 224.4375 C-32.33268982 222.09901858 -32.33268982 222.09901858 -30.25 218.4375 C-29.23256291 210.96821978 -31.77389396 207.15399558 -36.125 201.25 C-36.71853271 200.41484863 -37.31206543 199.57969727 -37.92358398 198.71923828 C-42.05526181 192.94611761 -46.35514833 187.30970189 -50.734375 181.72265625 C-54.17285364 177.28832663 -57.36156306 172.67776059 -60.58056641 168.08325195 C-65.84550948 160.57062823 -71.22155966 153.14072129 -76.60449219 145.71240234 C-78.2536628 143.43243621 -79.89720428 141.14851766 -81.5390625 138.86328125 C-86.94551982 131.34296666 -92.38908483 123.85392374 -97.9375 116.4375 C-98.44289307 115.76058105 -98.94828613 115.08366211 -99.46899414 114.38623047 C-102.91137352 109.36618938 -102.91137352 109.36618938 -108.0625 106.6875 C-111.70543317 106.40177975 -113.12487154 106.56242293 -116.25 108.4375 C-120.78295518 113.11213577 -124.54717272 118.45705235 -128.3125 123.75 C-129.45955089 125.350321 -130.60668876 126.95057967 -131.75390625 128.55078125 C-132.33414551 129.36240723 -132.91438477 130.1740332 -133.51220703 131.01025391 C-136.24574479 134.82829723 -138.99838134 138.63247841 -141.75 142.4375 C-142.83343447 143.93742695 -143.91676758 145.43742713 -145 146.9375 C-164.5 173.9375 -164.5 173.9375 -166.12744141 176.19067383 C-167.20289859 177.67990532 -168.278097 179.16932373 -169.35302734 180.65893555 C-172.17969325 184.57532279 -175.01173821 188.48767238 -177.8515625 192.39453125 C-178.44130859 193.20728516 -179.03105469 194.02003906 -179.63867188 194.85742188 C-180.76591684 196.41071218 -181.8947327 197.96286414 -183.02539062 199.51367188 C-188.97453514 207.23112231 -188.97453514 207.23112231 -190.67578125 216.50390625 C-189.93801136 219.85432914 -187.88242962 221.41726332 -185.25 223.4375 C-172.26924501 227.76441833 -157.92818178 225.07754785 -144.25 225.4375 C-144.25 262.3975 -144.25 299.3575 -144.25 337.4375 C-175.21618833 337.51782734 -175.21618833 337.51782734 -190.57441044 337.53800774 C-198.86172354 337.54906604 -207.14899612 337.56307833 -215.4362793 337.58837891 C-222.00041892 337.60840915 -228.56452788 337.62123913 -235.12869722 337.62567699 C-238.59944445 337.62826818 -242.07010404 337.6342921 -245.54082298 337.64896011 C-249.42981903 337.6652602 -253.31873191 337.66547356 -257.20776367 337.66455078 C-258.33921814 337.67174133 -259.47067261 337.67893188 -260.63641357 337.68634033 C-284.35529209 337.62585079 -307.12807571 329.842382 -325.25 314.4375 C-325.75901855 314.0053418 -326.26803711 313.57318359 -326.79248047 313.12792969 C-337.85048645 303.6398664 -345.98044106 293.06835866 -353.25 280.4375 C-353.78625 279.52742188 -354.3225 278.61734375 -354.875 277.6796875 C-367.05899684 255.40581828 -370.34823313 225.28641647 -364.2890625 200.73828125 C-355.5909769 173.10714465 -340.11335069 152.59855883 -316.25 136.4375 C-316.4665625 135.56351563 -316.683125 134.68953125 -316.90625 133.7890625 C-321.96663227 111.4390408 -319.54170284 90.9502953 -307.25 71.4375 C-297.48565321 56.55257219 -280.65690724 45.63470141 -263.30078125 41.93359375 C-249.61721466 39.70848113 -236.58270513 40.62815568 -223.25 44.4375 C-223.01152344 43.60347656 -222.77304688 42.76945312 -222.52734375 41.91015625 C-221.04495163 37.88004433 -219.09622866 34.49453601 -216.8125 30.875 C-216.14988159 29.82445435 -216.14988159 29.82445435 -215.47387695 28.75268555 C-210.97195674 21.77530313 -205.87497531 15.53106643 -200.25 9.4375 C-199.51789307 8.6316748 -199.51789307 8.6316748 -198.77099609 7.80957031 C-174.81033031 -18.31383431 -140.45711332 -34.1656281 -105.1484375 -36.4375 C-66.26294245 -38.11450248 -28.95915522 -26.4391911 0 0 Z " fill="#000000" transform="translate(366.25,105.5625)"/>
</svg>
